<svg xmlns="http://www.w3.org/2000/svg" viewBox="0 0 512 512" width="45" height="45" style="" filter="drop-shadow(0px 0px 2px rgba(201,239,245,0.5))">
    <defs><linearGradient id="1,1,rs,1,f0dwf000,f0dwf0rs,f000,6oc3hchcrs,rsjqr8qhrs" x1="0" x2="100%" y1="0" y2="0" gradientTransform="matrix(6.123233995736766e-17, 1, -1, 6.123233995736766e-17, 256, 0)" gradientUnits="userSpaceOnUse"><stop stop-color="#6f9f9f" stop-opacity="1" offset="0.24"></stop><stop stop-color="#b5faf3" stop-opacity="1" offset="1"></stop></linearGradient></defs>
    <g>
    <path d="M256 32C114.6 32 0 125.1 0 240c0 49.6 21.4 95 57 130.7C44.5 421.1 2.7 466 2.2 466.5c-2.2 2.3-2.8 5.7-1.5 8.7S4.8 480 8 480c66.3 0 116-31.8 140.6-51.4 32.7 12.3 69 19.4 107.4 19.4 141.4 0 256-93.1 256-208S397.4 32 256 32zM128 272c-17.7 0-32-14.3-32-32s14.3-32 32-32 32 14.3 32 32-14.3 32-32 32zm128 0c-17.7 0-32-14.3-32-32s14.3-32 32-32 32 14.3 32 32-14.3 32-32 32zm128 0c-17.7 0-32-14.3-32-32s14.3-32 32-32 32 14.3 32 32-14.3 32-32 32z" fill="url(#1,1,rs,1,f0dwf000,f0dwf0rs,f000,6oc3hchcrs,rsjqr8qhrs)"></path>
    </g>
  </svg>